<?xml version="1.0" standalone="no"?>
<!DOCTYPE svg PUBLIC "-//W3C//DTD SVG 1.1//EN" "http://www.w3.org/Graphics/SVG/1.1/DTD/svg11.dtd" >
<svg xmlns="http://www.w3.org/2000/svg">
<metadata>
This is a custom SVG webfont generated by Font Squirrel.
Copyright   : c 19962011 Typodermic Fonts See attached license agreement If agreement is missing visit typodermicfontscom for more info
Designer    : Ray Larabie
Foundry     : Ray Larabie
</metadata>
<defs>
<font id="BlueHighwayCondensed" horiz-adv-x="1165" >
<font-face units-per-em="2048" ascent="1556" descent="-492" />
<missing-glyph horiz-adv-x="339" />
<glyph unicode=" "  horiz-adv-x="339" />
<glyph unicode="&#x09;" horiz-adv-x="339" />
<glyph unicode="&#xa0;" horiz-adv-x="339" />
<glyph unicode="!" horiz-adv-x="405" d="M98 149.5q0 61.5 30 104.5t73 43q39 0 71.5 -44t32.5 -103.5t-32.5 -104.5t-71.5 -45q-43 0 -73 44t-30 105.5zM102 862v608h195v-608l-33 -416h-121z" />
<glyph unicode="&#x22;" horiz-adv-x="634" d="M76 1544h188l-41 -637h-112zM369 1544h188l-41 -637h-113z" />
<glyph unicode="#" horiz-adv-x="909" d="M74 369v168h162l47 405h-152v168h174l39 360h143l-38 -360h110l45 360h137l-41 -360h136v-168h-158l-49 -405h147v-168h-164l-47 -369h-141l45 369h-111l-49 -369h-139l45 369h-141zM377 532h110l54 412h-117z" />
<glyph unicode="$" horiz-adv-x="704" d="M78 276l74 222q86 -115 178 -115q98 0 98 133q0 66 -24.5 100.5t-81.5 57.5q-61 25 -97.5 45t-71 57t-49 92.5t-14.5 135.5q0 274 195 323v143h131v-137q123 -16 172 -98l-72 -193q-41 72 -129 72q-98 0 -98 -104q0 -59 26.5 -89t100.5 -57q203 -74 202 -336 q0 -291 -202 -352v-176h-131v166q-111 16 -207 110z" />
<glyph unicode="%" horiz-adv-x="1161" d="M90 1083q0 418 203 418q205 0 205 -418q0 -420 -205 -419q-203 -1 -203 419zM172 0l682 1470h141l-686 -1470h-137zM219 1083q0 -279 74 -278q76 0 76 278q0 281 -76 281q-74 0 -74 -281zM666 387q0 418 202 418q205 0 205 -418q0 -420 -205 -420q-202 0 -202 420z M795 387q0 -279 73 -278q76 0 76 278q0 281 -76 281q-73 0 -73 -281z" />
<glyph unicode="&#x26;" horiz-adv-x="944" d="M59 410q0 154 42 239.5t116 149.5q-113 182 -113 372q0 170 84 245t197 75q127 0 189.5 -70.5t66.5 -220.5l-180 -84q-6 102 -25.5 138t-60.5 36q-63 0 -64 -119q0 -80 19.5 -142t77.5 -159l180 -301q20 96 22 254h209q0 -295 -76 -497l172 -326h-251l-58 109 q-43 -61 -112.5 -95t-135.5 -34q-299 0 -299 430zM274 426q0 -113 34 -160t79 -47q82 0 119 103l-184 296q-48 -77 -48 -192z" />
<glyph unicode="'" horiz-adv-x="342" d="M76 1544h188l-41 -637h-112z" />
<glyph unicode="(" horiz-adv-x="686" d="M188 575q0 510 265 955h190q-291 -395 -291 -955q0 -494 297 -956h-196q-265 448 -265 956z" />
<glyph unicode=")" horiz-adv-x="686" d="M37 -381q297 463 297 956q0 559 -291 955h190q264 -444 265 -955q0 -508 -265 -956h-196z" />
<glyph unicode="*" horiz-adv-x="1036" d="M59 1163l66 117l332 -195l-11 385h129v-385l328 203l70 -117l-336 -188l338 -182l-66 -117l-331 197l10 -387h-129v385l-328 -203l-68 117l336 188z" />
<glyph unicode="+" d="M63 633v186h426v424h187v-424h424v-186h-424v-426h-187v426h-426z" />
<glyph unicode="," horiz-adv-x="419" d="M88 147q0 63 34 106.5t87 43.5q45 0 82 -44t37 -106q0 -129 -52.5 -221t-146.5 -108v35q53 12 76.5 43.5t32.5 103.5h-37q-51 0 -82 44t-31 103z" />
<glyph unicode="-" horiz-adv-x="407" d="M55 682v221h295v-221h-295z" />
<glyph unicode="." horiz-adv-x="440" d="M102 147q0 66 31 108t84 42q49 0 84 -44t35 -106q0 -59 -36 -103t-83 -44q-51 0 -83 43t-32 104z" />
<glyph unicode="/" horiz-adv-x="774" d="M25 -197l557 1727h166l-560 -1727h-163z" />
<glyph unicode="0" horiz-adv-x="886" d="M90 735.5q0 755.5 354.5 755.5t354.5 -755.5t-354.5 -755.5t-354.5 755.5zM283 735.5q0 -540.5 161.5 -540.5t161.5 540.5t-161.5 540.5t-161.5 -540.5z" />
<glyph unicode="1" horiz-adv-x="448" d="M63 1137v198q96 2 101 135h176v-1470h-197v1137h-80z" />
<glyph unicode="2" horiz-adv-x="768" d="M94 0v117q0 266 54.5 411.5t160.5 237.5q100 84 134 142.5t34 174.5q0 94 -24.5 134t-81.5 40q-35 0 -61.5 -23.5t-37 -44t-26.5 -61.5l-144 156q29 92 110 149.5t181 57.5q129 0 205 -105.5t76 -320.5q0 -160 -45 -250t-142 -186q-115 -115 -147.5 -185.5t-32.5 -226.5 h367v-217h-580z" />
<glyph unicode="3" horiz-adv-x="733" d="M82 182l158 189q31 -172 114 -172q96 0 97 239q0 150 -32 199t-85 49h-74v217h74q43 0 59.5 38t16.5 159q0 98 -19.5 136t-60.5 38q-61 0 -72 -86l-166 80q51 223 250 223q250 0 250 -358q0 -143 -23.5 -214t-74.5 -98q82 -43 117.5 -132t35.5 -253q0 -457 -293 -456 q-202 -1 -272 202z" />
<glyph unicode="4" horiz-adv-x="788" d="M61 377v248l336 845h215v-876h97v-217h-97v-377h-192v377h-359zM250 594h170v430z" />
<glyph unicode="5" horiz-adv-x="784" d="M94 94l84 217q74 -104 182 -104q76 0 112 60.5t36 228.5q0 158 -34 215t-99 57q-39 0 -70 -25.5t-45 -66.5l-160 86l35 708h508v-217h-330l-14 -301q41 37 127 37q121 0 195.5 -124t74.5 -349q0 -264 -87 -400t-224 -136q-160 -1 -291 114z" />
<glyph unicode="6" horiz-adv-x="749" d="M84 557q0 252 55.5 463t153.5 338t221 133l21 -207q-82 -12 -146.5 -111.5t-95.5 -269.5q35 47 135 47q242 0 242 -471q0 -268 -76 -383.5t-225 -115.5q-131 0 -208 153.5t-77 423.5zM279 467q0 -127 26.5 -198.5t71.5 -71.5q113 0 112 268q0 127 -28.5 202.5t-77.5 75.5 q-104 0 -104 -276z" />
<glyph unicode="7" horiz-adv-x="737" d="M82 1251v219h588v-243q-113 -168 -185.5 -511t-76.5 -716h-205q39 844 252 1251h-373z" />
<glyph unicode="8" horiz-adv-x="759" d="M82 438q0 334 166 398q-117 94 -117 325q0 162 66.5 246t185.5 84t185.5 -84t66.5 -246q0 -231 -117 -325q166 -63 166 -398q0 -233 -80 -345.5t-221 -112.5t-221 112.5t-80 345.5zM276 442q0 -242 106.5 -241.5t106.5 241.5q0 266 -106.5 266t-106.5 -266zM313 1112 q0 -184 70 -184t70 184q0 172 -70 172t-70 -172z" />
<glyph unicode="9" horiz-adv-x="755" d="M86 991q0 268 76 384t225 116q131 0 208 -153.5t77 -424.5q0 -252 -55.5 -462.5t-153.5 -337.5t-221 -133l-21 206q82 12 146.5 111.5t95.5 269.5q-35 -47 -135 -47q-242 0 -242 471zM266 1006q0 -127 29 -203t78 -76q104 0 104 277q0 127 -26.5 198.5t-71.5 71.5 q-113 0 -113 -268z" />
<glyph unicode=":" horiz-adv-x="477" d="M117 147q0 61 36.5 105.5t88.5 44.5q47 0 81.5 -43t34.5 -107q0 -59 -34.5 -103t-81.5 -44q-51 0 -88 44t-37 103zM117 946.5q0 61.5 36.5 104.5t88.5 43q47 0 81.5 -43t34.5 -104.5t-34.5 -104.5t-81.5 -43q-51 0 -88 43t-37 104.5z" />
<glyph unicode=";" horiz-adv-x="483" d="M125 147.5q0 63.5 32.5 106.5t88.5 43q49 0 87 -44t38 -106q0 -141 -52.5 -228t-152.5 -101v35q119 33 121 147h-45q-53 0 -85 42t-32 105.5zM125 946.5q0 63.5 34 105.5t87 42q49 0 87 -43t38 -104.5t-37 -104.5t-88 -43q-55 0 -88 42t-33 105.5z" />
<glyph unicode="&#x3c;" d="M63 633v188l1037 408v-207l-836 -297l836 -295v-207z" />
<glyph unicode="=" d="M63 326v186h1037v-186h-1037zM63 940v186h1037v-186h-1037z" />
<glyph unicode="&#x3e;" d="M63 223v207l836 295l-836 297v207l1037 -408v-188z" />
<glyph unicode="?" horiz-adv-x="677" d="M76 1321q31 76 105.5 123t156.5 47q119 0 195.5 -90t76.5 -271q0 -115 -27.5 -194.5t-99.5 -196.5q-45 -74 -59 -141.5t-14 -181.5h-195v20q0 141 21.5 231.5t87.5 192.5q57 90 72.5 136t15.5 110q0 152 -95 151q-90 0 -145 -131zM207 150q0 59 31.5 103t72.5 44 q49 0 77 -42t28 -105.5t-28 -106.5t-77 -43q-41 0 -72.5 44.5t-31.5 105.5z" />
<glyph unicode="@" horiz-adv-x="1157" d="M72 573q0 395 125 580.5t393 185.5q248 0 382 -148.5t134 -422.5q0 -264 -54.5 -370.5t-189.5 -106.5q-88 0 -141 69q-72 -72 -156 -71q-184 0 -184 305q0 137 48 211t134 74q70 0 115 -41v34h119v-405q16 -51 69 -51q43 0 62.5 75.5t19.5 276.5q0 428 -342 428 q-227 0 -298.5 -142.5t-71.5 -482.5q0 -199 45 -323.5t116.5 -178t182.5 -71.5l-29 -156q-233 49 -356 221t-123 510zM512 594q0 -96 16.5 -133t63.5 -37q53 0 78 37v266q-31 39 -84 39q-43 0 -58.5 -38t-15.5 -134z" />
<glyph unicode="A" horiz-adv-x="837" d="M37 0l262 1470h246l258 -1470h-205l-49 283h-262l-47 -283h-203zM324 500h188l-94 557z" />
<glyph unicode="B" horiz-adv-x="808" d="M102 0v1470h316q115 0 189.5 -88t74.5 -270q0 -139 -25.5 -207.5t-78.5 -107.5q74 -20 122 -106.5t48 -244.5q0 -250 -80 -348t-244 -98h-322zM297 217h102q76 0 108 51t32 168q0 119 -31 164t-107 45h-104v-428zM297 862h100q49 0 69.5 42t20.5 157q0 113 -20.5 152.5 t-69.5 39.5h-100v-391z" />
<glyph unicode="C" horiz-adv-x="888" d="M90 735q0 395 99.5 575.5t291.5 180.5q227 0 322 -260l-176 -129q-39 145 -146 145q-94 0 -141 -114.5t-47 -397.5q0 -510 190 -510q47 0 80 28t62 97l170 -127q-102 -244 -314 -243q-180 0 -285.5 185t-105.5 570z" />
<glyph unicode="D" horiz-adv-x="909" d="M102 0v1470h279q213 0 329.5 -165.5t116.5 -563.5q0 -741 -454 -741h-271zM297 221h55q131 0 204 116t73 400q0 162 -19.5 268.5t-60.5 159t-86 70.5t-111 18h-55v-1032z" />
<glyph unicode="E" horiz-adv-x="733" d="M102 0v1470h535v-217h-340v-391h211v-217h-211v-428h340v-217h-535z" />
<glyph unicode="F" horiz-adv-x="696" d="M102 0v1470h535v-217h-340v-391h219v-217h-219v-645h-195z" />
<glyph unicode="G" horiz-adv-x="919" d="M90 735q0 395 99.5 575.5t291.5 180.5q227 0 322 -260l-176 -129q-39 145 -146 145q-94 0 -141 -114.5t-47 -397.5q0 -274 44 -402t140 -128q145 0 152 315h-174v217h393v-94q0 -307 -91 -485t-280 -178q-387 -1 -387 755z" />
<glyph unicode="H" horiz-adv-x="868" d="M102 0v1470h195v-608h274v608h195v-1470h-195v645h-274v-645h-195z" />
<glyph unicode="I" horiz-adv-x="407" d="M106 0v1470h195v-1470h-195z" />
<glyph unicode="J" horiz-adv-x="565" d="M0 20l29 207q55 -18 92 -18q156 0 155 231v1030h195v-1062q0 -418 -321 -418q-107 -1 -150 30z" />
<glyph unicode="K" horiz-adv-x="815" d="M102 0v1470h195v-645l252 645h215l-256 -636l276 -834h-209l-186 580l-96 -232v-348h-191z" />
<glyph unicode="L" horiz-adv-x="716" d="M102 0v1470h195v-1253h369v-217h-564z" />
<glyph unicode="M" horiz-adv-x="1001" d="M102 0v1470h244l162 -741l158 741h233v-1470h-197v772l-163 -772h-60l-182 797v-797h-195z" />
<glyph unicode="N" horiz-adv-x="880" d="M102 0v1470h226l256 -849v849h194v-1470h-209l-272 891v-891h-195z" />
<glyph unicode="O" horiz-adv-x="954" d="M90 735.5q0 370.5 104.5 563t282.5 192.5t282.5 -192.5t104.5 -563t-104.5 -563t-282.5 -192.5t-282.5 192.5t-104.5 563zM283 735q0 -254 55 -397t139 -143q86 0 140.5 137t54.5 403t-54.5 403.5t-140.5 137.5t-140 -137.5t-54 -403.5z" />
<glyph unicode="P" horiz-adv-x="806" d="M102 0v1470h322q162 0 246 -104t84 -342t-84 -341t-246 -103h-127v-580h-195zM297 797h125q78 0 107.5 41t29.5 178q0 139 -30.5 188t-106.5 49h-125v-456z" />
<glyph unicode="Q" horiz-adv-x="952" d="M90 735q0 371 104.5 563.5t282.5 192.5t282.5 -192.5t104.5 -563.5q0 -385 -116 -579l96 -217l-170 -80l-72 157q-63 -27 -125 -26q-178 0 -282.5 188t-104.5 557zM283 731q0 -254 55 -398.5t139 -144.5q25 0 43 11l-145 323l170 90l94 -215q33 135 33 334 q0 270 -54.5 407.5t-140.5 137.5t-140 -137.5t-54 -407.5z" />
<glyph unicode="R" horiz-adv-x="821" d="M102 0v1470h336q162 0 239 -96t77 -350q0 -182 -41 -276.5t-127 -133.5l170 -614h-217l-142 580h-100v-580h-195zM297 797h139q66 0 94.5 48t28.5 171q0 139 -28.5 188t-94.5 49h-139v-456z" />
<glyph unicode="S" horiz-adv-x="761" d="M80 1133q0 162 83 260t222 98q180 0 260 -107l-55 -215q-57 96 -174 97q-139 0 -140 -133q0 -78 35 -135.5t176 -182.5q104 -94 150.5 -184t46.5 -234q0 -418 -313 -417q-174 0 -289 122l76 217q84 -121 211 -120q123 0 123 198q0 80 -21.5 126t-85.5 108 q-20 18 -77.5 66t-86 79t-67.5 84t-56.5 121t-17.5 152z" />
<glyph unicode="T" horiz-adv-x="778" d="M55 1251v219h668v-219h-227v-1251h-209v1251h-232z" />
<glyph unicode="U" horiz-adv-x="862" d="M98 502v968h195v-976q0 -174 34.5 -234.5t108.5 -60.5q68 0 99.5 60t31.5 235v976h197v-966q0 -281 -81 -402.5t-247 -121.5q-168 0 -253 120.5t-85 401.5z" />
<glyph unicode="V" horiz-adv-x="837" d="M37 1470h211l170 -1054l176 1054h207l-260 -1470h-248z" />
<glyph unicode="W" horiz-adv-x="1214" d="M39 1470h205l129 -993l131 993h207l127 -989l131 989h207l-215 -1470h-252l-107 766l-115 -766h-241z" />
<glyph unicode="X" horiz-adv-x="819" d="M37 0l270 741l-266 729h205l168 -487l168 487h198l-270 -737l264 -733h-209l-157 496l-160 -496h-211z" />
<glyph unicode="Y" horiz-adv-x="794" d="M33 1470h211l153 -557l156 557h209l-258 -907v-563h-211v557z" />
<glyph unicode="Z" horiz-adv-x="768" d="M80 0v227l405 1037h-405v206h614v-235l-407 -1030h411v-205h-618z" />
<glyph unicode="[" horiz-adv-x="589" d="M209 -381v1911h307v-160h-162v-1589h162v-162h-307z" />
<glyph unicode="\" horiz-adv-x="774" d="M25 1530h165l558 -1727h-164z" />
<glyph unicode="]" horiz-adv-x="589" d="M74 -219h162v1589h-162v160h307v-1911h-307v162z" />
<glyph unicode="^" d="M80 434l409 1036h189l407 -1036h-206l-297 836l-295 -836h-207z" />
<glyph unicode="_" horiz-adv-x="1169" d="M0 -96h1169v-166h-1169v166z" />
<glyph unicode="`" horiz-adv-x="778" d="M186 1495l99 129l307 -293l-68 -92z" />
<glyph unicode="a" horiz-adv-x="735" d="M66 385q0 393 270 393q66 0 98 -22v47q0 66 -28.5 98.5t-73.5 32.5q-80 0 -111 -74l-78 170q66 123 215 123q127 0 201 -113.5t74 -306.5v-733h-174v39q-49 -59 -146 -59q-109 0 -178 105t-69 300zM262 391q0 -178 98 -178q59 0 78 57l2 265q-25 45 -73 45 q-105 -1 -105 -189z" />
<glyph unicode="b" horiz-adv-x="786" d="M102 0v1417l195 94v-405q47 47 125 47q139 0 206.5 -141.5t67.5 -458.5q0 -324 -70.5 -448.5t-215.5 -124.5q-90 0 -134 59v-39h-174zM297 264q35 -59 94 -59q117 0 117 348q0 213 -25.5 295t-93.5 82q-70 0 -92 -60v-606z" />
<glyph unicode="c" horiz-adv-x="706" d="M90 575q0 279 86 428.5t227 149.5q158 0 215 -139l-118 -164q-35 82 -97 82q-117 0 -116 -359q0 -201 28.5 -284.5t87.5 -83.5q72 0 107 67l125 -131q-29 -66 -95.5 -113.5t-148.5 -47.5q-139 0 -220 150t-81 445z" />
<glyph unicode="d" horiz-adv-x="794" d="M90 563q0 309 71.5 449.5t211.5 140.5q78 0 125 -47v311l194 94v-1511h-174v39q-43 -59 -133 -59q-147 0 -221 126.5t-74 456.5zM279 553q0 -356 124 -356q59 0 95 59v606q-23 59 -92.5 59.5t-98 -81.5t-28.5 -287z" />
<glyph unicode="e" horiz-adv-x="780" d="M90 549q0 283 85 443.5t231 160.5q137 0 218 -154.5t81 -441.5q0 -68 -7 -123h-409q0 -113 35.5 -173t81.5 -60q66 0 108 90l125 -144q-74 -168 -240 -167q-152 0 -230.5 147.5t-78.5 421.5zM289 653h217q-6 289 -103 289q-108 0 -114 -289z" />
<glyph unicode="f" horiz-adv-x="464" d="M43 915v218h72v137q0 123 53 194.5t160 71.5q53 0 94 -12v-205q-27 20 -72 20q-61 0 -61 -75v-131h135v-218h-127v-915h-182v915h-72z" />
<glyph unicode="g" horiz-adv-x="782" d="M86 584q0 170 21.5 286.5t61.5 176t86 83t105 23.5q88 0 144 -59v39h174v-1043q0 -500 -324 -567l-16 237q125 31 143 265q-61 -45 -121 -45q-141 0 -207.5 136t-66.5 468zM274 580q0 -215 25 -296t92 -81q70 0 92 59v606q-35 59 -94 60q-115 0 -115 -348z" />
<glyph unicode="h" horiz-adv-x="757" d="M102 0v1417l195 94v-407q49 49 127 49q123 0 183.5 -78t60.5 -246v-829h-197v819q0 111 -88 111q-66 0 -86 -80v-850h-195z" />
<glyph unicode="i" horiz-adv-x="399" d="M94 1397q0 66 28 106.5t79 40.5q45 0 74.5 -42t29.5 -105q0 -59 -32.5 -103.5t-71.5 -44.5q-47 0 -77 42.5t-30 105.5zM102 0v1133h195v-1133h-195z" />
<glyph unicode="j" horiz-adv-x="432" d="M31 -266q106 57 106 260v1139h191v-1143q0 -356 -250 -467zM129 1397q0 61 32 104t70 43q47 0 77 -42t30 -105.5t-29.5 -105.5t-77.5 -42q-39 0 -70.5 44.5t-31.5 103.5z" />
<glyph unicode="k" horiz-adv-x="710" d="M102 0v1417l195 94v-729l141 351h226l-203 -433l209 -700h-203l-133 512l-41 -96v-416h-191z" />
<glyph unicode="l" horiz-adv-x="397" d="M102 0v1417l193 94v-1511h-193z" />
<glyph unicode="m" horiz-adv-x="1130" d="M102 0v1133h174v-41q51 61 148 61q129 0 178 -78q51 78 193 78q244 0 243 -328v-825h-196v819q0 111 -88 111q-66 0 -86 -80v-850h-197v819q0 111 -88 111q-66 0 -86 -80v-850h-195z" />
<glyph unicode="n" horiz-adv-x="757" d="M102 0v1133h174v-41q51 61 148 61q123 0 183.5 -73.5t60.5 -241.5v-838h-197v819q0 111 -88 111q-66 0 -86 -80v-850h-195z" />
<glyph unicode="o" horiz-adv-x="790" d="M90 567.5q0 278.5 83 432t222.5 153.5t222 -153.5t82.5 -432t-84 -433t-221 -154.5t-221 154.5t-84 433zM285 567q0 -365 110.5 -364.5t110.5 364.5q0 362 -110.5 362t-110.5 -362z" />
<glyph unicode="p" horiz-adv-x="784" d="M102 -477v1610h174v-39q43 59 130 59q96 0 156.5 -47t96 -179t35.5 -358q0 -311 -67.5 -450t-204.5 -139q-78 0 -125 47v-410zM297 270q23 -59 92 -59q68 0 92.5 80t24.5 289q0 356 -119 356q-55 0 -90 -59v-607z" />
<glyph unicode="q" horiz-adv-x="784" d="M90 580q0 324 69.5 448.5t215.5 124.5q90 0 133 -59v39h174v-1516l-195 -94v504q-47 -47 -125 -47q-139 0 -205.5 140.5t-66.5 459.5zM279 580q0 -215 24.5 -296t91.5 -81q70 0 92 59v606q-35 59 -94 60q-114 0 -114 -348z" />
<glyph unicode="r" horiz-adv-x="565" d="M102 0v1133h174v-41q43 61 125 61q76 0 117 -49l-47 -211q-43 37 -90 37q-57 0 -84 -51v-879h-195z" />
<glyph unicode="s" horiz-adv-x="665" d="M59 92l74 221q86 -115 178 -114q98 0 99 133q0 66 -25 100.5t-82 56.5q-61 25 -97 45.5t-71 57.5t-49 92t-14 135q0 334 280 334q74 0 132.5 -27.5t84.5 -74.5l-71 -193q-41 72 -129 72q-98 0 -99 -105q0 -59 27 -88.5t100 -56.5q203 -74 203 -336q0 -186 -82 -275 t-215 -89q-125 -1 -244 112z" />
<glyph unicode="t" horiz-adv-x="499" d="M43 915v218h72v217l192 94v-311h123v-218h-123v-618q0 -96 72 -96q45 0 72 43l-21 -238q-39 -27 -117 -26q-96 0 -147 80.5t-51 224.5v630h-72z" />
<glyph unicode="u" horiz-adv-x="763" d="M94 295v838h197v-820q0 -55 25.5 -82.5t64.5 -27.5q66 0 86 80v850h195v-1133h-175v41q-51 -61 -147 -61q-123 0 -184.5 73.5t-61.5 241.5z" />
<glyph unicode="v" horiz-adv-x="681" d="M41 1133h205l96 -637l96 637h203l-197 -1133h-208z" />
<glyph unicode="w" horiz-adv-x="1030" d="M41 1133h205l82 -596l82 596h208l84 -601l82 601h205l-180 -1133h-213l-82 522l-84 -522h-209z" />
<glyph unicode="x" horiz-adv-x="675" d="M33 0l207 567l-207 566h205l104 -336l104 336h201l-207 -562l203 -571h-205l-102 346l-105 -346h-198z" />
<glyph unicode="y" horiz-adv-x="681" d="M41 1133h203l100 -639l96 639h201l-279 -1610h-210l86 471z" />
<glyph unicode="z" horiz-adv-x="679" d="M74 0v188l293 738h-279v207h506v-183l-291 -743h297v-207h-526z" />
<glyph unicode="{" horiz-adv-x="737" d="M66 487v170q248 6 247 281v270q0 322 308 322h61v-152h-37q-143 0 -143 -159v-279q0 -272 -266 -369q266 -94 266 -366v-279q0 -160 143 -159h37v-152h-61q-307 0 -308 322v270q1 272 -247 280z" />
<glyph unicode="|" horiz-adv-x="569" d="M199 -381v1911h172v-1911h-172z" />
<glyph unicode="}" horiz-adv-x="737" d="M55 -233h37q143 0 144 159v279q0 272 266 366q-266 96 -266 369v279q0 160 -144 159h-37v152h62q307 0 307 -322v-270q0 -274 248 -281v-170q-248 -8 -248 -280v-270q0 -322 -307 -322h-62v152z" />
<glyph unicode="~" d="M47 696q115 195 309 195q74 0 141.5 -27.5t108.5 -61.5t90 -61.5t92 -27.5q92 0 179 137l135 -105q-57 -96 -141 -149t-173 -53q-84 0 -162.5 44t-146 89t-125.5 45q-92 0 -168 -123z" />
<glyph unicode="&#xa1;" horiz-adv-x="405" d="M98 1321q0 59 33 104t72 45q43 0 72.5 -44t29.5 -105t-29.5 -104t-72.5 -43q-39 0 -72 44t-33 103zM106 0v608l33 416h121l41 -416v-608h-195z" />
<glyph unicode="&#xa2;" horiz-adv-x="704" d="M84 739q0 238 64.5 382.5t175.5 183.5v165h133v-159q109 -23 155 -133l-118 -164q-35 82 -97 82q-117 0 -116 -359q0 -201 28.5 -284.5t87.5 -83.5q72 0 107 67l125 -131q-51 -115 -172 -151v-154h-133v152q-113 31 -176.5 178t-63.5 409z" />
<glyph unicode="&#xa3;" horiz-adv-x="755" d="M92 0v217h17q45 0 70.5 57.5t25.5 153.5v254h-58v219h58v289q0 125 58.5 213t180.5 88q141 0 201 -143l-102 -142q-27 72 -76 72q-35 0 -50.5 -20.5t-15.5 -69.5v-287h99v-219h-99v-270q0 -131 -49 -195h305v-217h-565z" />
<glyph unicode="&#xa5;" horiz-adv-x="727" d="M31 1470h192l142 -520l141 520h190l-233 -774h178v-164h-178v-165h178v-160h-178v-207h-197v207h-194v160h194v165h-194v164h194z" />
<glyph unicode="&#xa6;" horiz-adv-x="569" d="M199 295h172v-676h-172v676zM199 854v676h172v-676h-172z" />
<glyph unicode="&#xa7;" horiz-adv-x="741" d="M78 723q0 195 133 264q-55 82 -55 211q0 133 69.5 213t186.5 80q152 0 221 -86l-47 -176q-47 78 -146 78q-119 0 -118 -109q0 -63 29.5 -109.5t148.5 -148.5q88 -78 127 -151.5t39 -190.5q0 -82 -33 -154.5t-94 -109.5q49 -88 49 -211q0 -340 -264 -340q-147 0 -244 100 l63 176q74 -98 178.5 -98t104.5 162q0 68 -17.5 104.5t-74.5 87.5q-16 14 -64.5 53.5t-73 64t-57.5 68.5t-47 99t-14 123zM244 723q0 -63 28.5 -106.5t149.5 -151.5l22 -19q59 33 60 152q0 66 -26.5 112t-115.5 121q-118 1 -118 -108z" />
<glyph unicode="&#xa8;" horiz-adv-x="792" d="M102 1440q0 66 31 107.5t84 41.5q49 0 84 -44t35 -105q0 -59 -36 -103.5t-83 -44.5q-51 0 -83 43.5t-32 104.5zM457 1440q0 66 30.5 107.5t83.5 41.5q49 0 84 -44t35 -105q0 -59 -36 -103.5t-83 -44.5q-51 0 -82.5 43.5t-31.5 104.5z" />
<glyph unicode="&#xa9;" horiz-adv-x="1626" d="M78 735.5q0 313.5 215 534.5t518 221q305 0 520 -221t215 -534.5t-215 -534.5t-520 -221q-303 0 -518 221t-215 534.5zM201 735q0 -256 178 -433t432 -177q256 0 435 178t179 432q0 256 -180 435.5t-434 179.5t-432 -179.5t-178 -435.5zM475 743q0 188 93.5 310.5 t246.5 122.5q197 0 281 -152l-115 -74q-66 86 -166 86q-94 0 -150.5 -79.5t-56.5 -213.5q0 -125 60.5 -207.5t152.5 -82.5q96 0 160 73l106 -73q-92 -141 -272 -142q-147 0 -243.5 123t-96.5 309z" />
<glyph unicode="&#xaa;" horiz-adv-x="464" d="M57 1018q0 223 156 223q33 0 51 -6v8q0 59 -53 60q-39 0 -64 -48l-53 111q43 78 131 78q160 0 160 -182v-463h-111v39q-6 -20 -30.5 -36t-48.5 -16q-59 0 -98.5 57.5t-39.5 174.5zM184 1022q0 -88 43 -88q23 0 31 14v166q-8 8 -29 8q-45 0 -45 -100z" />
<glyph unicode="&#xab;" horiz-adv-x="847" d="M94 647v178l248 203v-172l-154 -117l154 -116v-168zM518 647v178l248 203v-172l-154 -117l154 -116v-168z" />
<glyph unicode="&#xac;" d="M63 633v186h1037v-819h-187v633h-850z" />
<glyph unicode="&#xad;" horiz-adv-x="407" d="M55 682v221h295v-221h-295z" />
<glyph unicode="&#xae;" horiz-adv-x="1626" d="M78 735.5q0 313.5 215 534.5t518 221q305 0 520 -221t215 -534.5t-215 -534.5t-520 -221q-303 0 -518 221t-215 534.5zM201 735q0 -256 178 -433t432 -177q256 0 435 178t179 432q0 256 -180 435.5t-434 179.5t-432 -179.5t-178 -435.5zM565 324v841h297 q127 0 195.5 -67.5t68.5 -188.5q0 -180 -159 -231l161 -354h-137l-149 331h-150v-331h-127zM692 780h180q129 0 129 125q0 133 -129 133h-180v-258z" />
<glyph unicode="&#xaf;" horiz-adv-x="661" d="M82 1399v129h498v-129h-498z" />
<glyph unicode="&#xb0;" horiz-adv-x="841" d="M117 1186q0 127 88 216t215 89q125 0 215 -90t90 -215q0 -127 -89 -216t-216 -89t-215 89t-88 216zM246 1183.5q0 -73.5 51 -123.5t123 -50q74 0 125 50t51 124q0 72 -52 124t-124 52q-74 0 -124 -51.5t-50 -125z" />
<glyph unicode="&#xb1;" d="M63 -92v186h1037v-186h-1037zM63 633v186h426v424h187v-424h424v-186h-424v-426h-187v426h-426z" />
<glyph unicode="&#xb2;" horiz-adv-x="483" d="M72 676v74q0 147 29.5 228t88.5 132q53 45 71 73.5t18 88.5q0 82 -46 82q-49 0 -63 -82l-94 104q41 125 153 125q178 0 179 -239q0 -90 -25 -139.5t-80 -104.5t-73.5 -93t-20.5 -108h199v-141h-336z" />
<glyph unicode="&#xb3;" horiz-adv-x="464" d="M63 788l89 99q12 -45 25 -62.5t46 -17.5q41 0 41 117q0 72 -13 96t-44 24h-45v144h35q31 0 42 17.5t11 74.5q0 82 -39 82q-31 0 -37 -53l-104 55q27 137 147 137q147 0 148 -205q0 -129 -43 -166q72 -51 71 -208q0 -258 -170 -258q-127 -1 -160 124z" />
<glyph unicode="&#xb4;" horiz-adv-x="569" d="M82 1331l307 293l98 -129l-337 -256z" />
<glyph unicode="&#xb5;" horiz-adv-x="763" d="M94 -477v1610h197v-820q0 -55 25.5 -82.5t64.5 -27.5q66 0 86 80v850h195v-1133h-175v41q-51 -61 -110 -61q-47 0 -88 30v-393z" />
<glyph unicode="&#xb6;" horiz-adv-x="1130" d="M57 1024q0 211 96.5 328.5t227.5 117.5h641v-1853h-205v1634h-141v-1634h-207v963h-88q-133 0 -228.5 119.5t-95.5 324.5zM254 1018q0 -221 135 -221h80v454h-80q-135 0 -135 -233z" />
<glyph unicode="&#xb7;" horiz-adv-x="440" d="M102 737q0 66 31 108t84 42q49 0 84 -44t35 -106q0 -59 -36 -103t-83 -44q-51 0 -83 43t-32 104z" />
<glyph unicode="&#xb8;" horiz-adv-x="401" d="M82 -193q0 61 32.5 96.5t86.5 35.5q47 0 82.5 -36t35.5 -96q0 -260 -198 -284v33q43 10 60.5 18t30.5 32.5t17 69.5h-34q-53 0 -83 36t-30 95z" />
<glyph unicode="&#xb9;" horiz-adv-x="307" d="M53 1288v131q51 0 56 72h118v-815h-131v612h-43z" />
<glyph unicode="&#xba;" horiz-adv-x="495" d="M70 1116.5q0 155.5 48 241.5t128 86q82 0 129 -86t47 -241.5t-47 -243t-129 -87.5q-80 0 -128 87.5t-48 243zM197 1116q0 -184 49 -184q47 0 47 184t-47 184q-49 0 -49 -184z" />
<glyph unicode="&#xbb;" horiz-adv-x="847" d="M94 455v168l154 116l-154 117v172l248 -203v-178zM518 455v168l154 116l-154 117v172l248 -203v-178z" />
<glyph unicode="&#xbc;" horiz-adv-x="1110" d="M90 1288v131q51 0 55 72h119v-815h-131v612h-43zM111 0l682 1470h141l-686 -1470h-137zM649 182v150l187 463h133v-473h53v-140h-53v-202h-125v202h-195zM766 322h78v213z" />
<glyph unicode="&#xbd;" horiz-adv-x="1153" d="M90 1288v131q51 0 55 72h119v-815h-131v612h-43zM111 0l682 1470h141l-686 -1470h-137zM729 -20v73q0 147 29.5 228t89.5 133q53 45 70.5 73.5t17.5 87.5q0 82 -45 82q-49 0 -64 -82l-94 105q41 125 154 125q178 0 178 -240q0 -90 -24.5 -139t-80 -104.5t-74 -93.5 t-20.5 -107h199v-141h-336z" />
<glyph unicode="&#xbe;" horiz-adv-x="1216" d="M90 788l88 99q12 -45 25.5 -62.5t46.5 -17.5q41 0 41 117q0 72 -13.5 96t-44.5 24h-45v144h35q31 0 42 17.5t11 74.5q0 82 -38 82q-31 0 -37 -53l-105 55q27 137 148 137q147 0 147 -205q0 -129 -43 -166q72 -51 72 -208q0 -258 -170 -258q-127 -1 -160 124zM217 0 l682 1470h141l-686 -1470h-137zM756 182v150l186 463h133v-473h53v-140h-53v-202h-125v202h-194zM872 322h78v213z" />
<glyph unicode="&#xbf;" horiz-adv-x="677" d="M66 340q0 115 27.5 194.5t99.5 196.5q45 74 59 141.5t14 182.5h195v-21q0 -141 -21.5 -231t-87.5 -193q-57 -90 -72.5 -136t-15.5 -109q0 -152 94 -152q90 0 146 131l96 -194q-31 -76 -105.5 -123t-156.5 -47q-119 0 -195.5 90t-76.5 270zM260 1320.5q0 63.5 27.5 106.5 t77.5 43q41 0 72.5 -44t31.5 -105q0 -59 -31.5 -103t-72.5 -44q-49 0 -77 41.5t-28 105z" />
<glyph unicode="&#xc0;" horiz-adv-x="837" d="M37 0l262 1470h246l258 -1470h-205l-49 283h-262l-47 -283h-203zM156 1833l98 129l307 -293l-67 -92zM324 500h188l-94 557z" />
<glyph unicode="&#xc1;" horiz-adv-x="837" d="M37 0l262 1470h246l258 -1470h-205l-49 283h-262l-47 -283h-203zM276 1669l308 293l98 -129l-338 -256zM324 500h188l-94 557z" />
<glyph unicode="&#xc2;" horiz-adv-x="837" d="M37 0l262 1470h246l258 -1470h-205l-49 283h-262l-47 -283h-203zM150 1645l268 317l268 -317l-78 -80l-190 202l-191 -202zM324 500h188l-94 557z" />
<glyph unicode="&#xc3;" horiz-adv-x="837" d="M37 0l262 1470h246l258 -1470h-205l-49 283h-262l-47 -283h-203zM66 1733q20 102 76.5 160.5t129.5 58.5q61 0 114.5 -42t99.5 -84t92 -42q37 0 55 24.5t33 87.5l106 -24q-45 -225 -213 -225q-57 0 -108.5 41t-94.5 81.5t-82 40.5q-70 0 -102 -118zM324 500h188l-94 557z " />
<glyph unicode="&#xc4;" horiz-adv-x="837" d="M37 0l262 1470h246l258 -1470h-205l-49 283h-262l-47 -283h-203zM125 1778q0 66 30.5 107.5t84.5 41.5q49 0 83.5 -44t34.5 -105q0 -59 -35.5 -103.5t-82.5 -44.5q-51 0 -83 43.5t-32 104.5zM324 500h188l-94 557zM479 1778q0 66 31 107.5t84 41.5q49 0 84 -44t35 -105 q0 -59 -36 -103.5t-83 -44.5q-51 0 -83 43.5t-32 104.5z" />
<glyph unicode="&#xc5;" horiz-adv-x="837" d="M37 0l262 1470h246l258 -1470h-205l-49 283h-262l-47 -283h-203zM197 1741q0 90 64.5 155.5t154.5 65.5t156.5 -65.5t66.5 -155.5t-66.5 -155.5t-156.5 -65.5t-154.5 65.5t-64.5 155.5zM313 1741q0 -45 29 -75t74 -30q43 0 73.5 30t30.5 75q0 41 -30.5 70.5t-73.5 29.5 t-73 -29.5t-30 -70.5zM324 500h188l-94 557z" />
<glyph unicode="&#xc6;" horiz-adv-x="1200" d="M37 0l262 1470h805v-217h-383l31 -391h223v-217h-205l35 -428h299v-217h-486l-24 283h-307l-47 -283h-203zM324 500h254l-64 753h-63z" />
<glyph unicode="&#xc7;" horiz-adv-x="888" d="M90 735q0 395 99.5 575.5t291.5 180.5q227 0 322 -260l-176 -129q-39 145 -146 145q-94 0 -141 -114.5t-47 -397.5q0 -510 190 -510q47 0 80 28t62 97l170 -127q-102 -244 -314 -243q-180 0 -285.5 185t-105.5 570zM362 -193q0 61 33 96.5t86 35.5q47 0 83 -36t36 -96 q0 -260 -199 -284v33q43 10 60.5 18t31 32.5t17.5 69.5h-35q-53 0 -83 36t-30 95z" />
<glyph unicode="&#xc8;" horiz-adv-x="733" d="M102 0v1470h535v-217h-340v-391h211v-217h-211v-428h340v-217h-535zM115 1833l98 129l307 -293l-67 -92z" />
<glyph unicode="&#xc9;" horiz-adv-x="733" d="M102 0v1470h535v-217h-340v-391h211v-217h-211v-428h340v-217h-535zM238 1669l307 293l98 -129l-338 -256z" />
<glyph unicode="&#xca;" horiz-adv-x="733" d="M102 0v1470h535v-217h-340v-391h211v-217h-211v-428h340v-217h-535zM111 1645l268 317l268 -317l-78 -80l-190 202l-191 -202z" />
<glyph unicode="&#xcb;" horiz-adv-x="733" d="M86 1778q0 66 30.5 107.5t84.5 41.5q49 0 83.5 -44t34.5 -105q0 -59 -35.5 -103.5t-82.5 -44.5q-51 0 -83 43.5t-32 104.5zM102 0v1470h535v-217h-340v-391h211v-217h-211v-428h340v-217h-535zM440 1778q0 66 31 107.5t84 41.5q49 0 84 -44t35 -105q0 -59 -36 -103.5 t-83 -44.5q-51 0 -83 43.5t-32 104.5z" />
<glyph unicode="&#xcc;" horiz-adv-x="407" d="M-59 1833l98 129l307 -293l-67 -92zM106 0v1470h195v-1470h-195z" />
<glyph unicode="&#xcd;" horiz-adv-x="407" d="M63 1669l308 293l98 -129l-338 -256zM106 0v1470h195v-1470h-195z" />
<glyph unicode="&#xce;" horiz-adv-x="407" d="M-63 1645l268 317l268 -317l-78 -80l-190 202l-191 -202zM106 0v1470h195v-1470h-195z" />
<glyph unicode="&#xcf;" horiz-adv-x="407" d="M-90 1778q0 66 30.5 107.5t84.5 41.5q49 0 83.5 -44t34.5 -105q0 -59 -35.5 -103.5t-82.5 -44.5q-51 0 -83 43.5t-32 104.5zM106 0v1470h195v-1470h-195zM264 1778q0 66 31 107.5t84 41.5q49 0 84 -44t35 -105q0 -59 -36 -103.5t-83 -44.5q-51 0 -83 43.5t-32 104.5z" />
<glyph unicode="&#xd0;" horiz-adv-x="843" d="M51 645v217h51v608h279q213 0 329.5 -165.5t116.5 -563.5q0 -741 -454 -741h-271v645h-51zM297 221h55q131 0 204 116t73 400q0 162 -19.5 268.5t-60.5 159t-86 70.5t-111 18h-55v-391h160v-217h-160v-424z" />
<glyph unicode="&#xd1;" horiz-adv-x="880" d="M86 1733q20 102 76.5 160.5t130.5 58.5q61 0 114.5 -42t99.5 -84t91 -42q37 0 55.5 24.5t32.5 87.5l107 -24q-45 -225 -213 -225q-57 0 -108.5 41t-94.5 81.5t-82 40.5q-70 0 -102 -118zM102 0v1470h226l256 -849v849h194v-1470h-209l-272 891v-891h-195z" />
<glyph unicode="&#xd2;" horiz-adv-x="954" d="M90 735.5q0 370.5 104.5 563t282.5 192.5t282.5 -192.5t104.5 -563t-104.5 -563t-282.5 -192.5t-282.5 192.5t-104.5 563zM213 1833l98 129l307 -293l-67 -92zM283 735q0 -254 55 -397t139 -143q86 0 140.5 137t54.5 403t-54.5 403.5t-140.5 137.5t-140 -137.5 t-54 -403.5z" />
<glyph unicode="&#xd3;" horiz-adv-x="954" d="M90 735.5q0 370.5 104.5 563t282.5 192.5t282.5 -192.5t104.5 -563t-104.5 -563t-282.5 -192.5t-282.5 192.5t-104.5 563zM283 735q0 -254 55 -397t139 -143q86 0 140.5 137t54.5 403t-54.5 403.5t-140.5 137.5t-140 -137.5t-54 -403.5zM336 1669l307 293l98 -129 l-338 -256z" />
<glyph unicode="&#xd4;" horiz-adv-x="954" d="M90 735.5q0 370.5 104.5 563t282.5 192.5t282.5 -192.5t104.5 -563t-104.5 -563t-282.5 -192.5t-282.5 192.5t-104.5 563zM209 1645l268 317l268 -317l-77 -80l-191 202l-190 -202zM283 735q0 -254 55 -397t139 -143q86 0 140.5 137t54.5 403t-54.5 403.5t-140.5 137.5 t-140 -137.5t-54 -403.5z" />
<glyph unicode="&#xd5;" horiz-adv-x="954" d="M90 735.5q0 370.5 104.5 563t282.5 192.5t282.5 -192.5t104.5 -563t-104.5 -563t-282.5 -192.5t-282.5 192.5t-104.5 563zM123 1733q20 102 76.5 160.5t130.5 58.5q61 0 114.5 -42t99.5 -84t91 -42q37 0 55.5 24.5t32.5 87.5l106 -24q-45 -225 -213 -225q-57 0 -108 41 t-94 81.5t-82 40.5q-70 0 -103 -118zM283 735q0 -254 55 -397t139 -143q86 0 140.5 137t54.5 403t-54.5 403.5t-140.5 137.5t-140 -137.5t-54 -403.5z" />
<glyph unicode="&#xd6;" horiz-adv-x="954" d="M90 735.5q0 370.5 104.5 563t282.5 192.5t282.5 -192.5t104.5 -563t-104.5 -563t-282.5 -192.5t-282.5 192.5t-104.5 563zM182 1778q0 66 31 107.5t84 41.5q49 0 84 -44t35 -105q0 -59 -36 -103.5t-83 -44.5q-51 0 -83 43.5t-32 104.5zM283 735q0 -254 55 -397t139 -143 q86 0 140.5 137t54.5 403t-54.5 403.5t-140.5 137.5t-140 -137.5t-54 -403.5zM537 1778q0 66 30.5 107.5t83.5 41.5q49 0 84 -44t35 -105q0 -59 -36 -103.5t-83 -44.5q-51 0 -82.5 43.5t-31.5 104.5z" />
<glyph unicode="&#xd7;" d="M150 424l301 301l-301 301l133 131l301 -301l299 301l131 -133l-299 -299l299 -299l-131 -133l-299 301l-301 -301z" />
<glyph unicode="&#xd8;" horiz-adv-x="954" d="M90 735q0 371 104.5 563.5t282.5 192.5q88 0 160 -49l41 129h127l-74 -228q133 -199 133 -608q0 -371 -104.5 -563t-282.5 -192q-88 0 -166 51l-43 -133h-125l74 233q-127 198 -127 604zM272 735q0 -190 33 -327l266 829q-43 47 -94 47q-90 0 -147.5 -138.5t-57.5 -410.5 zM379 242q43 -55 98 -56q90 0 147.5 138.5t57.5 410.5q0 209 -35 342z" />
<glyph unicode="&#xd9;" horiz-adv-x="862" d="M98 502v968h195v-976q0 -174 34.5 -234.5t108.5 -60.5q68 0 99.5 60t31.5 235v976h197v-966q0 -281 -81 -402.5t-247 -121.5q-168 0 -253 120.5t-85 401.5zM168 1833l98 129l307 -293l-67 -92z" />
<glyph unicode="&#xda;" horiz-adv-x="862" d="M98 502v968h195v-976q0 -174 34.5 -234.5t108.5 -60.5q68 0 99.5 60t31.5 235v976h197v-966q0 -281 -81 -402.5t-247 -121.5q-168 0 -253 120.5t-85 401.5zM289 1669l307 293l98 -129l-338 -256z" />
<glyph unicode="&#xdb;" horiz-adv-x="862" d="M98 502v968h195v-976q0 -174 34.5 -234.5t108.5 -60.5q68 0 99.5 60t31.5 235v976h197v-966q0 -281 -81 -402.5t-247 -121.5q-168 0 -253 120.5t-85 401.5zM162 1645l268 317l268 -317l-77 -80l-191 202l-190 -202z" />
<glyph unicode="&#xdc;" horiz-adv-x="862" d="M98 502v968h195v-976q0 -174 34.5 -234.5t108.5 -60.5q68 0 99.5 60t31.5 235v976h197v-966q0 -281 -81 -402.5t-247 -121.5q-168 0 -253 120.5t-85 401.5zM137 1778q0 66 31 107.5t84 41.5q49 0 84 -44t35 -105q0 -59 -36 -103.5t-83 -44.5q-51 0 -83 43.5t-32 104.5z M492 1778q0 66 30.5 107.5t83.5 41.5q49 0 84 -44t35 -105q0 -59 -36 -103.5t-83 -44.5q-51 0 -82.5 43.5t-31.5 104.5z" />
<glyph unicode="&#xdd;" horiz-adv-x="794" d="M33 1470h211l153 -557l156 557h209l-258 -907v-563h-211v557zM256 1669l307 293l99 -129l-338 -256z" />
<glyph unicode="&#xde;" horiz-adv-x="768" d="M102 0v1470h195v-233h65q172 0 262.5 -103.5t90.5 -355.5q0 -506 -357 -506h-61v-272h-195zM297 492h70q86 0 115.5 56t29.5 224q0 145 -35 196.5t-110 51.5h-70v-528z" />
<glyph unicode="&#xdf;" horiz-adv-x="944" d="M119 0v1120q0 190 87 304t240 114q170 0 252 -100.5t82 -284.5q0 -281 -131 -326q213 -66 213 -362q0 -485 -313 -485q-49 0 -96 22.5t-64 48.5l57 193q20 -47 74 -47q57 0 84 57t27 190q0 143 -42 199.5t-136 56.5v199q66 0 92 51t26 156q0 213 -108 213 q-68 0 -97.5 -51t-29.5 -166v-1102h-217z" />
<glyph unicode="&#xe0;" horiz-adv-x="735" d="M66 385q0 393 270 393q66 0 98 -22v47q0 66 -28.5 98.5t-73.5 32.5q-80 0 -111 -74l-78 170q66 123 215 123q127 0 201 -113.5t74 -306.5v-733h-174v39q-49 -59 -146 -59q-109 0 -178 105t-69 300zM104 1495l99 129l307 -293l-68 -92zM262 391q0 -178 98 -178q59 0 78 57 l2 265q-25 45 -73 45q-105 -1 -105 -189z" />
<glyph unicode="&#xe1;" horiz-adv-x="735" d="M66 385q0 393 270 393q66 0 98 -22v47q0 66 -28.5 98.5t-73.5 32.5q-80 0 -111 -74l-78 170q66 123 215 123q127 0 201 -113.5t74 -306.5v-733h-174v39q-49 -59 -146 -59q-109 0 -178 105t-69 300zM225 1331l307 293l99 -129l-338 -256zM262 391q0 -178 98 -178 q59 0 78 57l2 265q-25 45 -73 45q-105 -1 -105 -189z" />
<glyph unicode="&#xe2;" horiz-adv-x="735" d="M66 385q0 393 270 393q66 0 98 -22v47q0 66 -28.5 98.5t-73.5 32.5q-80 0 -111 -74l-78 170q66 123 215 123q127 0 201 -113.5t74 -306.5v-733h-174v39q-49 -59 -146 -59q-109 0 -178 105t-69 300zM100 1307l269 317l268 -317l-78 -80l-190 203l-191 -203zM262 391 q0 -178 98 -178q59 0 78 57l2 265q-25 45 -73 45q-105 -1 -105 -189z" />
<glyph unicode="&#xe3;" horiz-adv-x="735" d="M14 1395q20 102 76.5 160.5t130.5 58.5q61 0 114.5 -42t99.5 -84t91 -42q37 0 55.5 24.5t32.5 88.5l107 -25q-45 -225 -213 -225q-57 0 -108.5 41t-94.5 82t-82 41q-70 0 -102 -119zM66 385q0 393 270 393q66 0 98 -22v47q0 66 -28.5 98.5t-73.5 32.5q-80 0 -111 -74 l-78 170q66 123 215 123q127 0 201 -113.5t74 -306.5v-733h-174v39q-49 -59 -146 -59q-109 0 -178 105t-69 300zM262 391q0 -178 98 -178q59 0 78 57l2 265q-25 45 -73 45q-105 -1 -105 -189z" />
<glyph unicode="&#xe4;" horiz-adv-x="735" d="M66 385q0 393 270 393q66 0 98 -22v47q0 66 -28.5 98.5t-73.5 32.5q-80 0 -111 -74l-78 170q66 123 215 123q127 0 201 -113.5t74 -306.5v-733h-174v39q-49 -59 -146 -59q-109 0 -178 105t-69 300zM74 1440q0 66 30.5 107.5t83.5 41.5q49 0 84 -44t35 -105 q0 -59 -35.5 -103.5t-83.5 -44.5q-51 0 -82.5 43.5t-31.5 104.5zM262 391q0 -178 98 -178q59 0 78 57l2 265q-25 45 -73 45q-105 -1 -105 -189zM428 1440q0 66 30.5 107.5t84.5 41.5q49 0 84 -44t35 -105q0 -59 -36 -103.5t-83 -44.5q-51 0 -83 43.5t-32 104.5z" />
<glyph unicode="&#xe5;" horiz-adv-x="735" d="M66 385q0 393 270 393q66 0 98 -22v47q0 66 -28.5 98.5t-73.5 32.5q-80 0 -111 -74l-78 170q66 123 215 123q127 0 201 -113.5t74 -306.5v-733h-174v39q-49 -59 -146 -59q-109 0 -178 105t-69 300zM145 1403q0 90 64.5 155.5t155 65.5t157 -65.5t66.5 -155.5 t-66.5 -155.5t-157 -65.5t-155 65.5t-64.5 155.5zM262 391q0 -178 98 -178q59 0 78 57l2 265q-25 45 -73 45q-105 -1 -105 -189zM262 1403q0 -45 28.5 -75t74.5 -30q43 0 73.5 30t30.5 75q0 41 -30.5 70.5t-73.5 29.5t-73 -29.5t-30 -70.5z" />
<glyph unicode="&#xe6;" horiz-adv-x="1110" d="M66 385q0 393 270 393q66 0 98 -22v47q0 66 -28.5 98.5t-73.5 32.5q-80 0 -111 -74l-78 170q66 123 215 123q119 0 187 -111q72 111 190 111q137 0 218 -154.5t81 -441.5q0 -68 -6 -123h-410q0 -113 36 -173t81 -60q66 0 109 90l125 -144q-74 -168 -240 -167 q-125 0 -203 100q-72 -100 -213 -100q-109 0 -178 105t-69 300zM262 391q0 -178 98 -178q49 0 86 55q-27 115 -26 291q-20 20 -53 21q-105 -1 -105 -189zM618 653h218q-6 289 -103 289q-109 0 -115 -289z" />
<glyph unicode="&#xe7;" horiz-adv-x="706" d="M90 575q0 279 86 428.5t227 149.5q158 0 215 -139l-118 -164q-35 82 -97 82q-117 0 -116 -359q0 -201 28.5 -284.5t87.5 -83.5q72 0 107 67l125 -131q-29 -66 -95.5 -113.5t-148.5 -47.5q-139 0 -220 150t-81 445zM279 -193q0 61 32.5 96.5t85.5 35.5q47 0 83 -36t36 -96 q0 -260 -199 -284v33q43 10 60.5 18t31 32.5t17.5 69.5h-35q-53 0 -82.5 36t-29.5 95z" />
<glyph unicode="&#xe8;" horiz-adv-x="780" d="M90 549q0 283 85 443.5t231 160.5q137 0 218 -154.5t81 -441.5q0 -68 -7 -123h-409q0 -113 35.5 -173t81.5 -60q66 0 108 90l125 -144q-74 -168 -240 -167q-152 0 -230.5 147.5t-78.5 421.5zM139 1495l99 129l307 -293l-68 -92zM289 653h217q-6 289 -103 289 q-108 0 -114 -289z" />
<glyph unicode="&#xe9;" horiz-adv-x="780" d="M90 549q0 283 85 443.5t231 160.5q137 0 218 -154.5t81 -441.5q0 -68 -7 -123h-409q0 -113 35.5 -173t81.5 -60q66 0 108 90l125 -144q-74 -168 -240 -167q-152 0 -230.5 147.5t-78.5 421.5zM258 1331l307 293l99 -129l-338 -256zM289 653h217q-6 289 -103 289 q-108 0 -114 -289z" />
<glyph unicode="&#xea;" horiz-adv-x="780" d="M90 549q0 283 85 443.5t231 160.5q137 0 218 -154.5t81 -441.5q0 -68 -7 -123h-409q0 -113 35.5 -173t81.5 -60q66 0 108 90l125 -144q-74 -168 -240 -167q-152 0 -230.5 147.5t-78.5 421.5zM135 1307l268 317l269 -317l-78 -80l-191 203l-190 -203zM289 653h217 q-6 289 -103 289q-108 0 -114 -289z" />
<glyph unicode="&#xeb;" horiz-adv-x="780" d="M90 549q0 283 85 443.5t231 160.5q137 0 218 -154.5t81 -441.5q0 -68 -7 -123h-409q0 -113 35.5 -173t81.5 -60q66 0 108 90l125 -144q-74 -168 -240 -167q-152 0 -230.5 147.5t-78.5 421.5zM109 1440q0 66 30.5 107.5t83.5 41.5q49 0 84 -44t35 -105q0 -59 -36 -103.5 t-83 -44.5q-51 0 -82.5 43.5t-31.5 104.5zM289 653h217q-6 289 -103 289q-108 0 -114 -289zM463 1440q0 66 30.5 107.5t84.5 41.5q49 0 83.5 -44t34.5 -105q0 -59 -35.5 -103.5t-82.5 -44.5q-51 0 -83 43.5t-32 104.5z" />
<glyph unicode="&#xec;" horiz-adv-x="399" d="M-63 1495l98 129l307 -293l-68 -92zM102 0v1133h195v-1133h-195z" />
<glyph unicode="&#xed;" horiz-adv-x="399" d="M59 1331l308 293l98 -129l-338 -256zM102 0v1133h195v-1133h-195z" />
<glyph unicode="&#xee;" horiz-adv-x="464" d="M-35 1307l268 317l269 -317l-78 -80l-191 203l-190 -203zM135 0v1133h195v-1133h-195z" />
<glyph unicode="&#xef;" horiz-adv-x="526" d="M-31 1440q0 66 31 107.5t84 41.5q49 0 84 -44t35 -105q0 -59 -36 -103.5t-83 -44.5q-51 0 -83 43.5t-32 104.5zM166 0v1133h194v-1133h-194zM324 1440q0 66 30.5 107.5t83.5 41.5q49 0 84 -44t35 -105q0 -59 -36 -103.5t-83 -44.5q-51 0 -82.5 43.5t-31.5 104.5z" />
<glyph unicode="&#xf0;" horiz-adv-x="768" d="M90 481q0 207 71.5 334t188.5 127q35 0 83 -22.5t77 -67.5q-29 180 -96 291l-133 -160l-64 66l137 163q-55 49 -127 56l21 207q154 -18 235 -105l105 123l63 -66l-110 -133q137 -223 137 -735q0 -270 -77 -423.5t-208 -153.5q-145 0 -224 127.5t-79 371.5zM272 467 q0 -127 31 -197.5t82 -70.5q45 0 71.5 71.5t26.5 198.5q0 129 -27.5 202.5t-78.5 73.5q-47 0 -76 -75.5t-29 -202.5z" />
<glyph unicode="&#xf1;" horiz-adv-x="757" d="M27 1395q20 102 76.5 160.5t129.5 58.5q61 0 114.5 -42t100 -84t91.5 -42q37 0 55 24.5t33 88.5l106 -25q-45 -225 -213 -225q-57 0 -108.5 41t-94.5 82t-81 41q-70 0 -103 -119zM102 0v1133h174v-41q51 61 148 61q123 0 183.5 -73.5t60.5 -241.5v-838h-197v819 q0 111 -88 111q-66 0 -86 -80v-850h-195z" />
<glyph unicode="&#xf2;" horiz-adv-x="790" d="M90 567.5q0 278.5 83 432t222.5 153.5t222 -153.5t82.5 -432t-84 -433t-221 -154.5t-221 154.5t-84 433zM131 1495l98 129l308 -293l-68 -92zM285 567q0 -365 110.5 -364.5t110.5 364.5q0 362 -110.5 362t-110.5 -362z" />
<glyph unicode="&#xf3;" horiz-adv-x="790" d="M90 567.5q0 278.5 83 432t222.5 153.5t222 -153.5t82.5 -432t-84 -433t-221 -154.5t-221 154.5t-84 433zM254 1331l307 293l98 -129l-337 -256zM285 567q0 -365 110.5 -364.5t110.5 364.5q0 362 -110.5 362t-110.5 -362z" />
<glyph unicode="&#xf4;" horiz-adv-x="790" d="M90 567.5q0 278.5 83 432t222.5 153.5t222 -153.5t82.5 -432t-84 -433t-221 -154.5t-221 154.5t-84 433zM127 1307l268 317l269 -317l-78 -80l-191 203l-190 -203zM285 567q0 -365 110.5 -364.5t110.5 364.5q0 362 -110.5 362t-110.5 -362z" />
<glyph unicode="&#xf5;" horiz-adv-x="790" d="M43 1395q20 102 76.5 160.5t130.5 58.5q61 0 114.5 -42t99.5 -84t91 -42q37 0 55.5 24.5t32.5 88.5l107 -25q-45 -225 -213 -225q-57 0 -108.5 41t-94.5 82t-82 41q-70 0 -102 -119zM90 567.5q0 278.5 83 432t222.5 153.5t222 -153.5t82.5 -432t-84 -433t-221 -154.5 t-221 154.5t-84 433zM285 567q0 -365 110.5 -364.5t110.5 364.5q0 362 -110.5 362t-110.5 -362z" />
<glyph unicode="&#xf6;" horiz-adv-x="790" d="M90 567.5q0 278.5 83 432t222.5 153.5t222 -153.5t82.5 -432t-84 -433t-221 -154.5t-221 154.5t-84 433zM102 1440q0 66 31 107.5t84 41.5q49 0 84 -44t35 -105q0 -59 -36 -103.5t-83 -44.5q-51 0 -83 43.5t-32 104.5zM285 567q0 -365 110.5 -364.5t110.5 364.5 q0 362 -110.5 362t-110.5 -362zM457 1440q0 66 30.5 107.5t83.5 41.5q49 0 84 -44t35 -105q0 -59 -36 -103.5t-83 -44.5q-51 0 -82.5 43.5t-31.5 104.5z" />
<glyph unicode="&#xf7;" d="M63 633v186h1037v-186h-1037zM465 238q0 66 30.5 107.5t84.5 41.5q49 0 83.5 -44t34.5 -105q0 -59 -35.5 -103.5t-82.5 -44.5q-51 0 -83 43.5t-32 104.5zM465 1212q0 66 30.5 108t84.5 42q49 0 83.5 -44t34.5 -106q0 -59 -35.5 -103t-82.5 -44q-51 0 -83 43t-32 104z" />
<glyph unicode="&#xf8;" horiz-adv-x="790" d="M90 567q0 279 83 432.5t222 153.5q66 0 121 -37l39 119h111l-68 -205q102 -158 102 -463q0 -279 -84 -433t-221 -154q-68 0 -125 38l-39 -120h-108l65 206q-98 160 -98 463zM276 567q0 -104 9 -168l164 510q-20 27 -54 27q-119 0 -119 -369zM338 227q23 -29 57 -28 q119 0 119 368q0 92 -10 174z" />
<glyph unicode="&#xf9;" horiz-adv-x="763" d="M94 295v838h197v-820q0 -55 25.5 -82.5t64.5 -27.5q66 0 86 80v850h195v-1133h-175v41q-51 -61 -147 -61q-123 0 -184.5 73.5t-61.5 241.5zM119 1495l98 129l307 -293l-67 -92z" />
<glyph unicode="&#xfa;" horiz-adv-x="763" d="M94 295v838h197v-820q0 -55 25.5 -82.5t64.5 -27.5q66 0 86 80v850h195v-1133h-175v41q-51 -61 -147 -61q-123 0 -184.5 73.5t-61.5 241.5zM240 1331l307 293l98 -129l-338 -256z" />
<glyph unicode="&#xfb;" horiz-adv-x="763" d="M94 295v838h197v-820q0 -55 25.5 -82.5t64.5 -27.5q66 0 86 80v850h195v-1133h-175v41q-51 -61 -147 -61q-123 0 -184.5 73.5t-61.5 241.5zM115 1307l268 317l268 -317l-78 -80l-190 203l-190 -203z" />
<glyph unicode="&#xfc;" horiz-adv-x="763" d="M88 1440q0 66 31 107.5t84 41.5q49 0 84 -44t35 -105q0 -59 -36 -103.5t-83 -44.5q-51 0 -83 43.5t-32 104.5zM94 295v838h197v-820q0 -55 25.5 -82.5t64.5 -27.5q66 0 86 80v850h195v-1133h-175v41q-51 -61 -147 -61q-123 0 -184.5 73.5t-61.5 241.5zM442 1440 q0 66 31 107.5t84 41.5q49 0 84 -44t35 -105q0 -59 -36 -103.5t-83 -44.5q-51 0 -83 43.5t-32 104.5z" />
<glyph unicode="&#xfd;" horiz-adv-x="681" d="M41 1133h203l100 -639l96 639h201l-279 -1610h-210l86 471zM199 1331l307 293l98 -129l-338 -256z" />
<glyph unicode="&#xfe;" horiz-adv-x="784" d="M102 -477v1894l195 94v-405q47 47 125 47q82 0 137 -42t84 -126t40 -182t11 -234q0 -311 -67.5 -450t-204.5 -139q-78 0 -125 47v-410zM297 270q23 -59 92 -59q68 0 92.5 80t24.5 289q0 350 -117 350q-70 0 -92 -60v-600z" />
<glyph unicode="&#xff;" horiz-adv-x="681" d="M41 1133h203l100 -639l96 639h201l-279 -1610h-210l86 471zM47 1440q0 66 31 107.5t84 41.5q49 0 84 -44t35 -105q0 -59 -36 -103.5t-83 -44.5q-51 0 -83 43.5t-32 104.5zM401 1440q0 66 31 107.5t84 41.5q49 0 84 -44t35 -105q0 -59 -36 -103.5t-83 -44.5 q-51 0 -83 43.5t-32 104.5z" />
<glyph unicode="&#x152;" horiz-adv-x="1265" d="M90 735.5q0 370.5 104.5 563t282.5 192.5q86 0 158 -78v57h534v-217h-340v-391h211v-217h-211v-428h340v-217h-534v57q-72 -78 -158 -77q-178 0 -282.5 192.5t-104.5 563zM283 735q0 -254 55 -397t139 -143q106 0 158 188v702q-51 190 -158 191q-86 0 -140 -137.5 t-54 -403.5z" />
<glyph unicode="&#x153;" horiz-adv-x="1193" d="M90 567.5q0 278.5 83 432t222 153.5q137 0 209 -149q76 150 215 149q137 0 218 -154.5t81 -441.5q0 -68 -6 -123h-410q0 -113 36 -173t81 -60q66 0 109 90l125 -144q-74 -168 -240 -167q-143 0 -215 137q-76 -137 -203 -137q-137 0 -221 154.5t-84 433zM285 567 q0 -365 110.5 -364.5t110.5 364.5q0 362 -110.5 362t-110.5 -362zM702 653h218q-6 289 -103 289q-109 0 -115 -289z" />
<glyph unicode="&#x178;" horiz-adv-x="794" d="M33 1470h211l153 -557l156 557h209l-258 -907v-563h-211v557zM102 1778q0 66 31 107.5t84 41.5q49 0 84 -44t35 -105q0 -59 -36 -103.5t-83 -44.5q-51 0 -83 43.5t-32 104.5zM457 1778q0 66 30.5 107.5t83.5 41.5q49 0 84 -44t35 -105q0 -59 -36 -103.5t-83 -44.5 q-51 0 -82.5 43.5t-31.5 104.5z" />
<glyph unicode="&#x2c6;" horiz-adv-x="782" d="M123 1307l268 317l268 -317l-77 -80l-191 203l-190 -203z" />
<glyph unicode="&#x2dc;" horiz-adv-x="870" d="M82 1395q20 102 76.5 160.5t130.5 58.5q61 0 114.5 -42t99.5 -84t91 -42q37 0 55.5 24.5t32.5 88.5l106 -25q-45 -225 -213 -225q-57 0 -108 41t-94 82t-82 41q-70 0 -103 -119z" />
<glyph unicode="&#x3bc;" horiz-adv-x="763" d="M94 -477v1610h197v-820q0 -55 25.5 -82.5t64.5 -27.5q66 0 86 80v850h195v-1133h-175v41q-51 -61 -110 -61q-47 0 -88 30v-393z" />
<glyph unicode="&#x2000;" horiz-adv-x="980" />
<glyph unicode="&#x2001;" horiz-adv-x="1961" />
<glyph unicode="&#x2002;" horiz-adv-x="980" />
<glyph unicode="&#x2003;" horiz-adv-x="1961" />
<glyph unicode="&#x2004;" horiz-adv-x="653" />
<glyph unicode="&#x2005;" horiz-adv-x="489" />
<glyph unicode="&#x2006;" horiz-adv-x="325" />
<glyph unicode="&#x2007;" horiz-adv-x="325" />
<glyph unicode="&#x2008;" horiz-adv-x="243" />
<glyph unicode="&#x2009;" horiz-adv-x="391" />
<glyph unicode="&#x200a;" horiz-adv-x="108" />
<glyph unicode="&#x2010;" horiz-adv-x="407" d="M55 682v221h295v-221h-295z" />
<glyph unicode="&#x2011;" horiz-adv-x="407" d="M55 682v221h295v-221h-295z" />
<glyph unicode="&#x2012;" horiz-adv-x="407" d="M55 682v221h295v-221h-295z" />
<glyph unicode="&#x2013;" horiz-adv-x="655" d="M55 686v217h545v-217h-545z" />
<glyph unicode="&#x2014;" horiz-adv-x="993" d="M55 686v217h881v-217h-881z" />
<glyph unicode="&#x2018;" horiz-adv-x="335" d="M53 1296q0 305 189 328v-41q-51 -12 -75 -39.5t-30 -99.5h39q45 0 81 -46t36 -102q0 -59 -37 -103t-86 -44q-53 0 -85 43t-32 104z" />
<glyph unicode="&#x2019;" horiz-adv-x="339" d="M43 1382.5q0 63.5 36 105.5t91 42q49 0 83 -43t34 -105q0 -139 -49.5 -225t-143.5 -100v41q53 8 79 37.5t30 101.5h-33q-55 0 -91 41t-36 104.5z" />
<glyph unicode="&#x201a;" horiz-adv-x="335" d="M43 147q0 63 34 106.5t87 43.5q45 0 82 -44t37 -106q0 -129 -52.5 -221t-146.5 -108v35q53 12 76.5 43.5t32.5 103.5h-37q-51 0 -82 44t-31 103z" />
<glyph unicode="&#x201c;" horiz-adv-x="671" d="M53 1296q0 305 189 328v-41q-51 -12 -75 -39.5t-30 -99.5h39q45 0 81 -46t36 -102q0 -59 -37 -103t-86 -44q-53 0 -85 43t-32 104zM389 1296q0 305 189 328v-41q-51 -12 -75 -39.5t-30 -99.5h39q45 0 81 -46t36 -102q0 -59 -37 -103t-86 -44q-53 0 -85 43t-32 104z" />
<glyph unicode="&#x201d;" horiz-adv-x="679" d="M43 1382.5q0 63.5 36 105.5t91 42q49 0 83 -43t34 -105q0 -139 -49.5 -225t-143.5 -100v41q53 8 79 37.5t30 101.5h-33q-55 0 -91 41t-36 104.5zM383 1382.5q0 63.5 36 105.5t91 42q49 0 83 -43t34 -105q0 -139 -49.5 -225t-143.5 -100v41q53 8 79 37.5t30 101.5h-33 q-55 0 -91 41t-36 104.5z" />
<glyph unicode="&#x201e;" horiz-adv-x="671" d="M43 147q0 63 34 106.5t87 43.5q45 0 82 -44t37 -106q0 -129 -52.5 -221t-146.5 -108v35q53 12 76.5 43.5t32.5 103.5h-37q-51 0 -82 44t-31 103zM379 147q0 63 33.5 106.5t87.5 43.5q45 0 81.5 -44t36.5 -106q0 -129 -52 -221t-146 -108v35q53 12 76.5 43.5t31.5 103.5 h-36q-51 0 -82 44t-31 103z" />
<glyph unicode="&#x2022;" horiz-adv-x="595" d="M111 725q0 76 54 131t132 55q76 0 131 -56t55 -130q0 -78 -54 -133t-132 -55t-132 55t-54 133z" />
<glyph unicode="&#x2026;" horiz-adv-x="1828" d="M121 147q0 66 30.5 108t84.5 42q49 0 83.5 -44t34.5 -106q0 -59 -35.5 -103t-82.5 -44q-51 0 -83 43t-32 104zM797 147q0 66 30.5 108t83.5 42q49 0 84 -44t35 -106q0 -59 -36 -103t-83 -44q-51 0 -82.5 43t-31.5 104zM1473 147q0 66 30.5 108t83.5 42q49 0 84 -44 t35 -106q0 -59 -36 -103t-83 -44q-51 0 -82.5 43t-31.5 104z" />
<glyph unicode="&#x202f;" horiz-adv-x="391" />
<glyph unicode="&#x2039;" horiz-adv-x="423" d="M94 647v178l248 203v-172l-154 -117l154 -116v-168z" />
<glyph unicode="&#x203a;" horiz-adv-x="423" d="M94 455v168l154 116l-154 117v172l248 -203v-178z" />
<glyph unicode="&#x205f;" horiz-adv-x="489" />
<glyph unicode="&#x20ac;" horiz-adv-x="768" d="M37 463l20 221h41v123h-61l20 213h60q29 215 126 343t244 128q143 0 209 -107l-61 -206q-33 53 -66.5 75.5t-89.5 22.5q-129 0 -166 -256h277l-62 -217h-237v-119h203l-64 -221h-117q20 -127 68.5 -196.5t116.5 -69.5q33 0 56.5 21.5t55.5 72.5l113 -166 q-94 -145 -252 -145q-135 0 -233.5 128t-120.5 355h-80z" />
<glyph unicode="&#x2122;" horiz-adv-x="1828" d="M72 1300v170h669v-170h-241v-786h-185v786h-243zM905 514v956h217l191 -528l186 528h207v-956h-172v596l-215 -596h-12l-230 596v-596h-172z" />
<glyph unicode="&#xe000;" horiz-adv-x="1135" d="M0 1135h1135v-1135h-1135v1135z" />
<glyph unicode="&#xfb01;" horiz-adv-x="864" d="M43 915v218h72v137q0 123 53 194.5t160 71.5q53 0 94 -12v-205q-27 20 -72 20q-61 0 -61 -75v-131h135v-218h-127v-915h-182v915h-72zM559 1397q0 66 27.5 106.5t79.5 40.5q45 0 74.5 -42t29.5 -105q0 -59 -32.5 -103.5t-71.5 -44.5q-47 0 -77 42.5t-30 105.5zM567 0 v1133h195v-1133h-195z" />
<glyph unicode="&#xfb02;" horiz-adv-x="862" d="M43 915v218h72v137q0 123 53 194.5t160 71.5q53 0 94 -12v-205q-27 20 -72 20q-61 0 -61 -75v-131h135v-218h-127v-915h-182v915h-72zM567 0v1417l193 94v-1511h-193z" />
<glyph unicode="&#xfb03;" horiz-adv-x="1329" d="M1024 1397q0 66 28 106.5t79 40.5q45 0 74.5 -42t29.5 -105q0 -59 -32.5 -103.5t-71.5 -44.5q-47 0 -77 42.5t-30 105.5zM1032 0v1133h195v-1133h-195zM508 915v218h72v137q0 123 53 194.5t160 71.5q53 0 94 -12v-205q-27 20 -72 20q-61 0 -61 -75v-131h135v-218h-127 v-915h-182v915h-72zM43 915v218h72v137q0 123 53 194.5t160 71.5q53 0 94 -12v-205q-27 20 -72 20q-61 0 -61 -75v-131h135v-218h-127v-915h-182v915h-72z" />
<glyph unicode="&#xfb04;" horiz-adv-x="1327" d="M1032 0v1417l193 94v-1511h-193zM508 915v218h72v137q0 123 53 194.5t160 71.5q53 0 94 -12v-205q-27 20 -72 20q-61 0 -61 -75v-131h135v-218h-127v-915h-182v915h-72zM43 915v218h72v137q0 123 53 194.5t160 71.5q53 0 94 -12v-205q-27 20 -72 20q-61 0 -61 -75v-131 h135v-218h-127v-915h-182v915h-72z" />
</font>
</defs>
</svg>
